<svg width="15" height="15" viewBox="0 0 15 15" fill="none" xmlns="http://www.w3.org/2000/svg">
<path d="M14.4 1.30476H11.25V0.144973C11.25 0.065238 11.1825 0 11.1 0H10.05C9.9675 0 9.9 0.065238 9.9 0.144973V1.30476H5.1V0.144973C5.1 0.065238 5.0325 0 4.95 0H3.9C3.8175 0 3.75 0.065238 3.75 0.144973V1.30476H0.6C0.268125 1.30476 0 1.5639 0 1.88465V13.9174C0 14.2382 0.268125 14.4973 0.6 14.4973H14.4C14.7319 14.4973 15 14.2382 15 13.9174V1.88465C15 1.5639 14.7319 1.30476 14.4 1.30476ZM13.65 13.1926H1.35V6.30634H13.65V13.1926ZM1.35 5.07407V2.60952H3.75V3.47936C3.75 3.5591 3.8175 3.62433 3.9 3.62433H4.95C5.0325 3.62433 5.1 3.5591 5.1 3.47936V2.60952H9.9V3.47936C9.9 3.5591 9.9675 3.62433 10.05 3.62433H11.1C11.1825 3.62433 11.25 3.5591 11.25 3.47936V2.60952H13.65V5.07407H1.35Z" fill="#FB9400"/>
</svg>
